HIERARCHY
ROOT Hips
{
	OFFSET -3.958830 18.904000 13.208200
	CHANNELS 6 Xposition Yposition Zposition Zrotation Yrotation Xrotation 
	JOINT LHipJoint
	{
		OFFSET 0.000000 0.000000 0.000000
		CHANNELS 3 Zrotation Yrotation Xrotation
		JOINT LeftUpLeg
		{
			OFFSET 1.800000 -1.400000 0.085000
			CHANNELS 3 Zrotation Yrotation Xrotation
			JOINT LeftLeg
			{
				OFFSET 2.215000 -6.000000 0.000000
				CHANNELS 3 Zrotation Yrotation Xrotation
				JOINT LeftFoot
				{
					OFFSET 2.500000 -6.900000 0.000000
					CHANNELS 3 Zrotation Yrotation Xrotation
					JOINT LeftToeBase
					{
						OFFSET 0.200000 -0.500000 1.950000
						CHANNELS 3 Zrotation Yrotation Xrotation
						End Site
						{
							OFFSET 0.000000 0.000000 0.000000
						}
					}
				}
			}
		}
	}
	JOINT RHipJoint
	{
		OFFSET 0.000000 0.000000 0.000000
		CHANNELS 3 Zrotation Yrotation Xrotation
		JOINT RightUpLeg
		{
			OFFSET -1.800000 -1.400000 0.085000
			CHANNELS 3 Zrotation Yrotation Xrotation
			JOINT RightLeg
			{
				OFFSET -2.215000 -6.000000 0.000000
				CHANNELS 3 Zrotation Yrotation Xrotation
				JOINT RightFoot
				{
					OFFSET -2.500000 -6.900000 0.000000
					CHANNELS 3 Zrotation Yrotation Xrotation
					JOINT RightToeBase
					{
						OFFSET -0.200000 -0.500000 1.950000
						CHANNELS 3 Zrotation Yrotation Xrotation
						End Site
						{
							OFFSET 0.000000 0.000000 0.000000
						}
					}
				}
			}
		}
	}
	JOINT LowerBack
	{
		OFFSET 0.000000 0.000000 0.000000
		CHANNELS 3 Zrotation Yrotation Xrotation
		JOINT Spine
		{
			OFFSET -0.087000 1.940000 -0.288900
			CHANNELS 3 Zrotation Yrotation Xrotation
			JOINT Spine1
			{
				OFFSET 0.000000 1.950000 0.060000
				CHANNELS 3 Zrotation Yrotation Xrotation
				JOINT Neck
				{
					OFFSET 0.000000 0.000000 0.000000
					CHANNELS 3 Zrotation Yrotation Xrotation
					JOINT Neck1
					{
						OFFSET 0.000000 1.600000 0.340000
						CHANNELS 3 Zrotation Yrotation Xrotation
						JOINT Head
						{
							OFFSET 0.000000 1.667000 -0.240000
							CHANNELS 3 Zrotation Yrotation Xrotation
							End Site
							{
								OFFSET 0.000000 0.000000 0.000000
							}
						}
					}
				}
				JOINT LeftShoulder
				{
					OFFSET 0.000000 0.000000 0.000000
					CHANNELS 3 Zrotation Yrotation Xrotation
					JOINT LeftArm
					{
						OFFSET 2.700000 1.550000 -0.730000
						CHANNELS 3 Zrotation Yrotation Xrotation
						JOINT LeftForeArm
						{
							OFFSET 5.450000 0.000000 0.000000
							CHANNELS 3 Zrotation Yrotation Xrotation
							JOINT LeftHand
							{
								OFFSET 3.450000 0.000000 0.000000
								CHANNELS 3 Zrotation Yrotation Xrotation
								JOINT LeftHandIndex1
								{
									OFFSET 0.750000 0.000000 0.000000
									CHANNELS 3 Zrotation Yrotation Xrotation
									End Site
									{
										OFFSET 0.000000 0.000000 0.000000
									}
								}
							}
						}
					}
				}
				JOINT RightShoulder
				{
					OFFSET 0.000000 0.000000 0.000000
					CHANNELS 3 Zrotation Yrotation Xrotation
					JOINT RightArm
					{
						OFFSET -2.700000 1.550000 -0.730000
						CHANNELS 3 Zrotation Yrotation Xrotation
						JOINT RightForeArm
						{
							OFFSET -5.450000 0.000000 0.000000
							CHANNELS 3 Zrotation Yrotation Xrotation
							JOINT RightHand
							{
								OFFSET -3.450000 0.000000 0.000000
								CHANNELS 3 Zrotation Yrotation Xrotation
								JOINT RightHandIndex1
								{
									OFFSET -0.750000 0.000000 0.000000
									CHANNELS 3 Zrotation Yrotation Xrotation
									End Site
									{
										OFFSET 0.000000 0.000000 0.000000
									}
								}
							}
						}
					}
				}
			}
		}
	}
}
MOTION
Frames: 7
Frame Time: 0.016667
0.182770 17.040400 -1.430940 -27.800525 29.588825 -21.972621 -15.283910 9.789093 3.229127 27.161173 -0.354631 -30.226809 -12.589270 18.215714 42.885413 0.044154 10.638644 0.799675 -0.067480 -0.398260 -0.235220 19.026711 -6.469635 6.647575 -17.101116 27.212525 -69.739441 40.172709 -38.315925 67.633810 -3.379857 -15.626197 -0.233164 -0.067170 0.535680 -0.035060 -4.561506 -0.704022 -10.401579 12.351291 -9.690183 61.396559 -13.153281 1.710577 4.586013 0.828683 -6.850539 -12.655266 -12.631249 -6.560872 29.046063 14.465830 -12.670700 -29.408490 -17.551607 -20.190154 5.259360 -9.456199 5.009268 -9.455490 36.383748 -37.288722 -11.417986 -3.585624 2.380859 0.915950 -0.078560 -0.119960 0.106370 15.689193 27.164464 11.096244 32.749111 -0.350107 -24.331876 -57.160603 58.578969 -31.991303 1.253102 -0.297792 -0.605860 0.789680 0.494050 -0.168850 
0.184820 16.991990 -1.464490 -28.354475 28.929032 -22.480595 -15.298778 9.689936 3.345066 27.932615 0.000877 -30.860373 -12.637703 18.959877 44.215839 0.183212 10.932129 0.722097 -0.075930 -0.395450 -0.238610 19.038699 -6.381092 6.619446 -17.271266 27.518407 -69.758641 40.365902 -38.399748 67.496646 -3.383680 -15.634926 -0.227012 -0.090070 0.523180 -0.026230 -4.514358 -0.740121 -10.436003 12.428650 -9.652429 62.936411 -13.087219 1.700000 3.741918 0.950793 -7.078988 -12.828155 -12.463362 -6.866251 27.136512 13.936110 -12.598680 -28.994230 -16.256372 -19.433410 5.482704 -9.710092 7.426182 -9.669585 36.361070 -40.199929 -11.949953 -3.533923 2.420625 0.874360 -0.074140 -0.118650 0.110040 14.193461 26.782968 10.930658 32.049482 -1.979951 -25.150952 -59.414852 63.369922 -35.656470 1.142256 -0.072997 -0.569990 0.749510 0.470720 -0.152000 
0.197050 16.967710 -1.481200 -28.784684 28.271332 -22.630089 -15.299678 9.634607 3.442852 28.693947 0.379879 -31.057659 -13.062775 19.398329 44.261851 0.227006 11.093885 0.701850 -0.141290 -0.467290 -0.281630 19.044751 -6.385638 6.528890 -16.409169 27.761693 -68.256739 39.505480 -38.521126 68.211429 -3.379667 -15.719747 -0.221883 -0.127490 0.574080 -0.048000 -4.499868 -0.722957 -10.440194 12.641982 -9.633583 63.557693 -13.040199 1.574646 2.270364 0.811211 -7.566813 -12.561338 -12.845122 -7.182458 25.661411 14.331850 -13.037510 -28.814630 -15.767471 -17.888213 5.275653 -10.448872 9.838677 -9.918555 36.131580 -44.191434 -12.889528 -3.510185 2.357292 0.865830 -0.051530 -0.151640 0.107250 13.953561 25.677404 10.638556 31.615695 -3.662494 -25.354527 -55.036636 67.172843 -34.457002 1.072738 0.008540 -0.605280 0.782310 0.495850 -0.142440 
0.216100 16.969460 -1.465820 -29.143082 28.639357 -23.302941 -15.315608 9.778087 3.405791 28.626109 0.265640 -30.672837 -12.440191 19.084770 44.474032 0.214234 11.056775 0.727933 -0.201090 -0.527620 -0.317150 18.999222 -6.471244 6.419007 -15.469924 26.894026 -65.626381 37.523966 -39.150371 70.253059 -3.418087 -16.001780 -0.267048 -0.161820 0.613490 -0.057460 -4.442677 -0.874452 -10.383664 12.448033 -9.466389 63.492474 -12.435245 1.097397 1.128862 0.643134 -7.516548 -12.098388 -12.719850 -7.290370 25.404169 14.376400 -13.063430 -28.607290 -15.813133 -16.284511 4.935043 -11.647568 11.537855 -10.183140 34.978568 -47.697130 -13.496719 -3.511764 2.294614 0.865070 -0.025210 -0.171310 0.092870 14.207935 23.949688 10.346534 32.075116 -5.424022 -25.067102 -44.638973 69.568541 -29.083380 1.115387 -0.184377 -0.631140 0.807150 0.527490 -0.140700 
0.249770 16.993830 -1.437310 -29.306424 28.917437 -24.286927 -15.331561 10.040396 3.334999 28.578326 0.107037 -29.349807 -12.275447 18.641592 43.870958 0.196871 10.905805 0.773930 -0.211910 -0.545820 -0.333860 18.931170 -6.615482 6.243811 -13.477968 25.904192 -61.439938 33.888786 -39.010947 73.182639 -3.451660 -16.238160 -0.331827 -0.176470 0.616720 -0.054190 -4.363204 -1.154327 -10.279049 11.600032 -9.241230 62.920513 -10.972421 0.139876 0.527440 0.220782 -8.117843 -11.699719 -14.080849 -6.142259 25.996212 14.939040 -12.863550 -28.193120 -15.547685 -14.183716 4.835624 -14.565700 13.326875 -10.446069 32.015339 -49.281933 -12.863928 -3.478449 2.324962 0.868940 -0.032650 -0.173020 0.093890 14.766440 22.008371 9.839711 31.106232 -6.084123 -23.338880 -27.622736 69.943937 -18.918121 1.292339 -0.600272 -0.628300 0.795380 0.534050 -0.135060 
0.282060 17.028520 -1.382410 -29.091533 29.646460 -24.800833 -15.345963 10.369335 3.203746 27.801912 -0.208422 -27.866269 -11.847917 17.864540 42.885527 0.163425 10.606843 0.874597 -0.239640 -0.593190 -0.348790 18.842347 -6.833431 6.096143 -12.206759 24.406751 -57.452616 29.895748 -38.882388 76.821709 -3.504988 -16.553822 -0.402254 -0.219620 0.623770 -0.035630 -4.283105 -1.388281 -10.176005 10.401472 -8.262244 61.256280 -9.612759 -0.244246 0.145001 -0.169333 -7.514049 -11.952295 -13.737147 -5.115139 28.148690 15.497750 -12.368700 -26.591010 -14.440056 -13.154251 5.065695 -18.080449 14.951392 -11.313864 28.471757 -50.675563 -11.960917 -3.451568 2.352035 0.883520 -0.026690 -0.167350 0.093130 14.402693 20.554003 9.989208 34.237640 -6.763302 -22.469807 -18.105386 65.766562 -11.997777 1.381979 -0.761690 -0.623390 0.768240 0.542830 -0.138530 
0.339570 17.072410 -1.323800 -29.197528 29.719958 -25.468048 -15.357340 10.719003 3.129380 27.688275 -0.290958 -25.969709 -11.741352 17.239097 41.634209 0.127737 10.331548 0.943411 -0.251330 -0.628060 -0.313690 18.749306 -7.122835 5.849835 -10.023049 22.814083 -52.171073 24.968529 -37.657881 80.258038 -3.497029 -16.622529 -0.444518 -0.255270 0.575600 -0.020970 -4.188379 -1.587752 -10.045328 9.853413 -7.609738 59.767507 -8.758167 -0.360699 -1.035259 -0.057731 -6.884220 -12.027039 -13.157901 -4.629007 29.853129 14.692940 -11.564880 -25.602930 -13.410166 -11.121032 4.797921 -22.039985 15.286658 -11.971371 23.010224 -51.367197 -10.009509 -3.437201 2.404271 0.904800 -0.043050 -0.145890 0.060980 13.055041 18.203986 10.006552 37.185967 -8.925699 -21.884366 -4.804025 63.375190 -4.509839 1.489451 -0.905310 -0.610510 0.715050 0.541620 -0.168400 
